# xmcd
#
# Track frame offsets:
#	183
#	13055
#	24508
#	39870
#	51975
#	63208
#	78718
#	90533
#	102663
#	118035
#
# Disc length: 1721 seconds
#
# Revision: 1
# Processed by: cddbd v1.5.2PL0 Copyright (c) Steve Scherf et al.
# Submitted via: EasyCDDAExtractor 15.3.0.1
#
DISCID=7c06b70a
DTITLE=The Parrotts - First time out
DYEAR=1900
DGENRE=Country
TTITLE0=Ashes of love
TTITLE1=I love country
TTITLE2=Today
TTITLE3=Lovin' what your lovin' does to me
TTITLE4=Second best
TTITLE5=Rock'n roll man
TTITLE6=Sunshine strangers
TTITLE7=Tonight's the night
TTITLE8=Honky-tonk moon
TTITLE9=Clock on the wall
EXTD=
EXTT0=
EXTT1=
EXTT2=
EXTT3=
EXTT4=
EXTT5=
EXTT6=
EXTT7=
EXTT8=
EXTT9=
PLAYORDER=
